<?xml version="1.0" encoding="UTF-8"?>
<svg id="Vrstva_1" data-name="Vrstva 1" xmlns="http://www.w3.org/2000/svg" viewBox="0 0 1920 870.4">
  <defs>
    <style>
      .cls-1 {
        font-family: MarkerFelt-Wide, 'Marker Felt';
        font-size: 484.26px;
      }

      .cls-1, .cls-2 {
        fill: #fff;
      }

      .cls-3 {
        letter-spacing: .04em;
      }
    </style>
  </defs>
  <g id="_4ZjQr6.tif" data-name="4ZjQr6.tif">
    <g>
      <path class="cls-2" d="M445.98,729.32c-.75.19-1.49.37-2.23.65.84-.19,1.58-.28,2.23-.47,1.02-.28,1.77-.56,2.23-.84-.74.28-1.49.47-2.23.65Z"/>
      <path class="cls-2" d="M1662.49,587.58c-78.04,0-141.27,63.14-141.27,141.09s63.23,141.09,141.27,141.09,141.18-63.14,141.18-141.09-63.14-141.09-141.18-141.09ZM1662.86,815.18c-47.68,0-86.33-38.65-86.33-86.23s38.65-86.33,86.33-86.33,86.33,38.65,86.33,86.33-38.74,86.23-86.33,86.23Z"/>
      <path class="cls-2" d="M1645.87,664.52c114.36-23.37,109.55,160.11-8.24,126.89-58.63-16.54-53.63-114.25,8.24-126.89Z"/>
      <path class="cls-2" d="M587.25,588.23c-78.04,0-141.27,63.14-141.27,141.09v.19c.09,77.85,63.33,140.9,141.27,140.9s141.18-63.14,141.18-141.09-63.23-141.09-141.18-141.09ZM587.63,815.83c-47.68,0-86.33-38.65-86.33-86.23s38.65-86.33,86.33-86.33,86.33,38.65,86.33,86.33-38.74,86.23-86.33,86.23Z"/>
      <path class="cls-2" d="M570.61,665.17c114.36-23.37,109.55,160.11-8.24,126.89-58.63-16.54-53.63-114.25,8.24-126.89Z"/>
    </g>
  </g>
  <text class="cls-1" transform="translate(787.14 557.06)"><tspan class="cls-3" x="0" y="0">K</tspan><tspan x="297.81" y="0">.</tspan></text>
  <path class="cls-2" d="M415.2,759.5c-1.58-9.22-1.63-24.41-1.63-34.18,0-96.01,77.95-173.77,174.05-173.77s174.05,77.76,174.05,173.77c0,9.41-.75,18.53-2.14,27.47l729.46-2.42c-1.21-8.19-1.77-16.48-1.77-25.05,0-96.01,77.95-173.77,174.05-173.77s174.05,77.76,174.05,173.77c0,8.38-.56,16.58-1.68,24.68,12.76,1.02,57.27-1.4,64.35-4.47,24.21-10.71,24.21-89.77,19.65-110.73-6.33-29.15-29.24-29.89-32.13-41.07-8.66-34.83,22.91-114.64-13.13-154.78-30.82-34.27-168.09-60.53-206.83-93.59-76.83-65.56-125.91-259.45-244.46-321.56C1346.33-15.51,306.57,5.73,306.57,5.73h-47.22c-2.05,0-4.1.09-6.05.19H69.38c-11.55,0-21.98,4.66-29.61,12.29-7.64,7.64-12.29,18.07-12.29,29.61,0,23,18.81,41.91,41.91,41.91h224.53c23.1,0,41.91,18.81,41.91,41.91,0,11.55-4.75,21.98-12.29,29.61-7.54,7.54-18.07,12.29-29.61,12.29h-142.95c-3.45,0-6.8.37-9.96,1.21-7.54,1.86-14.25,5.68-19.65,11.08-7.64,7.64-12.29,18.07-12.29,29.61,0,19.56,13.6,36.23,31.94,40.7,3.17.74,6.52,1.21,9.96,1.21h272.67c23,0,41.91,18.81,41.91,41.91,0,11.55-4.75,21.98-12.29,29.61-7.64,7.54-18.07,12.29-29.61,12.29H41.91c-11.45,0-21.98,4.66-29.61,12.29-7.54,7.64-12.29,18.07-12.29,29.61,0,23,18.9,41.91,41.91,41.91h316.82c23,0,41.91,18.81,41.91,41.91,0,11.55-4.75,21.98-12.29,29.61-7.64,7.54-18.16,12.29-29.61,12.29h-211.49c-2.14,0-4.19.19-6.24.47-9.03,1.4-17.13,5.59-23.37,11.83-7.64,7.64-12.29,18.07-12.29,29.61,0,20.86,15.46,38.37,35.67,41.44,2.05.28,4.1.47,6.24.47h109.52c23,0,41.91,18.81,41.91,41.91,0,11.55-4.75,21.98-12.29,29.61-7.64,7.54-18.07,12.29-29.61,12.29h-108.49c-11.18.19-21.33,4.84-28.78,12.29-7.64,7.64-12.29,18.07-12.29,29.61,0,23,18.81,41.91,41.91,41.91h219.69l46.42-.74ZM1465.71,328.41c0,11.08-196.87-10.9-196.87-63.88V104.53h196.87v223.88ZM1628.31,357.93c-2.61,7.36-152.63-14.43-152.63-22.07V104.53c16.67,30.36,157.66,239.52,152.63,253.4Z"/>
</svg>